<svg width="40" height="40" viewBox="0 0 40 40" fill="none" xmlns="http://www.w3.org/2000/svg">
<g id="bootstrap-4-logo-svgrepo-com 1" clip-path="url(#clip0_1_4731)">
<path id="Vector" d="M0.260956 34.5055C0.260956 37.2923 2.51997 39.551 5.30649 39.551H34.3457C37.1327 39.551 39.3914 37.292 39.3914 34.5055V5.46628C39.3914 2.67931 37.1324 0.420593 34.3459 0.420593H5.30664C2.51967 0.420593 0.260956 2.67961 0.260956 5.46613V34.5053V34.5055Z" fill="#563D7C"/>
<path id="Vector_2" d="M16.4876 17.7294V12.188H21.3653C21.8299 12.188 22.2778 12.2267 22.7091 12.3042C23.1405 12.3815 23.5222 12.5197 23.854 12.7189C24.1857 12.9181 24.4512 13.1946 24.6504 13.5484C24.8494 13.9024 24.9491 14.3559 24.9491 14.9088C24.9491 15.9044 24.6504 16.6234 24.053 17.0657C23.4558 17.5082 22.6926 17.7294 21.7634 17.7294H16.4876ZM11.2779 8.13971V31.832H22.759C23.8209 31.832 24.8551 31.6993 25.8616 31.4338C26.8681 31.1683 27.764 30.7591 28.5494 30.2061C29.3346 29.653 29.9596 28.9395 30.4241 28.0658C30.8888 27.192 31.121 26.1577 31.121 24.9632C31.121 23.481 30.7615 22.2146 30.0426 21.1639C29.3236 20.113 28.234 19.3775 26.774 18.9571C27.8358 18.4484 28.6379 17.7958 29.1799 16.9994C29.7218 16.203 29.9928 15.2076 29.9928 14.0129C29.9928 12.9069 29.8103 11.9779 29.4452 11.2257C29.0802 10.4736 28.5659 9.87077 27.9022 9.41726C27.2387 8.96374 26.4423 8.6374 25.5131 8.43838C24.584 8.23922 23.5553 8.13971 22.4271 8.13971H11.2779ZM16.4876 27.7836V21.2799H22.1616C23.2898 21.2799 24.1969 21.5397 24.8827 22.0598C25.5684 22.5796 25.9114 23.4478 25.9114 24.6645C25.9114 25.284 25.8063 25.7927 25.5961 26.1909C25.3859 26.5891 25.1039 26.9044 24.7499 27.1366C24.396 27.369 23.9867 27.5348 23.5222 27.6345C23.0575 27.7338 22.571 27.7836 22.0621 27.7836H16.4876Z" fill="white"/>
</g>
<defs>
<clipPath id="clip0_1_4731">
<rect width="39.1304" height="39.1304" fill="white" transform="translate(0.260956 0.420593)"/>
</clipPath>
</defs>
</svg>
