<svg width="44" height="44" viewBox="0 0 44 44" fill="none" xmlns="http://www.w3.org/2000/svg">
<g id="html-5-logo-svgrepo-com 1" clip-path="url(#clip0_1_4700)">
<path id="Vector" d="M37.2872 8.56567L34.4741 40.0798L21.829 43.5854L9.21871 40.0847L6.40851 8.56567H37.2872Z" fill="#E44D26"/>
<path id="Vector_2" d="M21.8478 40.9058L32.0657 38.0731L34.4696 11.1428H21.8478V40.9058Z" fill="#F16529"/>
<path id="Vector_3" d="M16.3792 18.8742H21.8478V15.0085H12.1545L12.247 16.0456L13.1972 26.6984H21.8478V22.8327H16.7325L16.3792 18.8742ZM17.2505 28.6313H13.3699L13.9114 34.701L21.83 36.8991L21.8478 36.8943V32.8723L21.8309 32.8768L17.5257 31.7143L17.2505 28.6313Z" fill="#EBEBEB"/>
<path id="Vector_4" d="M9.28137 0.00012207H11.2459V1.94101H13.043V0.00012207H15.0076V5.87761H13.0431V3.90949H11.246V5.87761H9.28149V0.00012207H9.28137ZM17.5908 1.94924H15.8616V0.00012207H21.2859V1.94924H19.5557V5.87761H17.5912V1.94924H17.5911H17.5908ZM22.1468 0.00012207H24.1951L25.4552 2.06532L26.714 0.00012207H28.7632V5.87761H26.8067V2.9644L25.4552 5.05417H25.4213L24.0689 2.9644V5.87761H22.1468V0.00012207ZM29.7409 0.00012207H31.706V3.93491H34.4686V5.87761H29.7407V0.00012207H29.7409Z" fill="black"/>
<path id="Vector_5" d="M21.8345 26.6984H26.5946L26.1458 31.7119L21.8344 32.8756V36.8973L29.7592 34.701L29.8173 34.0479L30.7259 23.8708L30.8202 22.8327H21.8345V26.6984ZM21.8345 18.8648V18.8742H31.1719L31.2494 18.0054L31.4256 16.0456L31.518 15.0085H21.8345V18.8649V18.8648Z" fill="white"/>
</g>
<defs>
<clipPath id="clip0_1_4700">
<rect width="43.6957" height="43.6957" fill="white"/>
</clipPath>
</defs>
</svg>
