<svg width="16" height="12" viewBox="0 0 16 12" fill="none" xmlns="http://www.w3.org/2000/svg">
<g id="mdi:office-building">
<path id="Vector" d="M3.3335 1.5V10.5H7.3335V8.75H8.66683V10.5H12.6668V1.5H3.3335ZM4.66683 2.5H6.00016V3.5H4.66683V2.5ZM7.3335 2.5H8.66683V3.5H7.3335V2.5ZM10.0002 2.5H11.3335V3.5H10.0002V2.5ZM4.66683 4.5H6.00016V5.5H4.66683V4.5ZM7.3335 4.5H8.66683V5.5H7.3335V4.5ZM10.0002 4.5H11.3335V5.5H10.0002V4.5ZM4.66683 6.5H6.00016V7.5H4.66683V6.5ZM7.3335 6.5H8.66683V7.5H7.3335V6.5ZM10.0002 6.5H11.3335V7.5H10.0002V6.5ZM4.66683 8.5H6.00016V9.5H4.66683V8.5ZM10.0002 8.5H11.3335V9.5H10.0002V8.5Z" fill="#A7A7A7"/>
</g>
</svg>
