<svg xmlns="http://www.w3.org/2000/svg">
    <!--vector-->
    <g id="vector">
        <path d="M33.3628 33.5861H0.74823V0.708374H22.8799V1.49108H1.52521V32.8034H32.5864V17.1472H33.3628V33.5861Z" fill="#343D68"/>
    </g>
    <!--cube-->
    <g id="cube">
        <path d="M23.3395 .514526C33.481 11.882 37.3868 25.263 37.3868 25.263C37.3868 25.263 24.85 27.7217 14.7085 20.9849C4.56705 14.2481 0.661255 0.867117 0.661255 0.867117C0.661255 0.867117 13.198 -1.59149 23.3395 5.14526Z" fill="#6C63FF"/>
    </g>
    <g>
        <g id="html5" clip-path="url(#clip0_1_4700)">
            <path id="Vector" d="M37.2872 8.56567L34.4741 40.0798L21.829 43.5854L9.21871 40.0847L6.40851 8.56567H37.2872Z" fill="#E44D26"/>
            <path id="Vector_2" d="M21.8478 40.9058L32.0657 38.0731L34.4696 11.1428H21.8478V40.9058Z" fill="#F16529"/>
            <path id="Vector_3" d="M16.3792 18.8742H21.8478V15.0085H12.1545L12.247 16.0456L13.1972 26.6984H21.8478V22.8327H16.7325L16.3792 18.8742ZM17.2505 28.6313H13.3699L13.9114 34.701L21.83 36.8991L21.8478 36.8943V32.8723L21.8309 32.8768L17.5257 31.7143L17.2505 28.6313Z" fill="#EBEBEB"/>
            <path id="Vector_4" d="M9.28137 0.00012207H11.2459V1.94101H13.043V0.00012207H15.0076V5.87761H13.0431V3.90949H11.246V5.87761H9.28149V0.00012207H9.28137ZM17.5908 1.94924H15.8616V0.00012207H21.2859V1.94924H19.5557V5.87761H17.5912V1.94924H17.5911H17.5908ZM22.1468 0.00012207H24.1951L25.4552 2.06532L26.714 0.00012207H28.7632V5.87761H26.8067V2.9644L25.4552 5.05417H25.4213L24.0689 2.9644V5.87761H22.1468V0.00012207ZM29.7409 0.00012207H31.706V3.93491H34.4686V5.87761H29.7407V0.00012207H29.7409Z" fill="black"/>
            <path id="Vector_5" d="M21.8345 26.6984H26.5946L26.1458 31.7119L21.8344 32.8756V36.8973L29.7592 34.701L29.8173 34.0479L30.7259 23.8708L30.8202 22.8327H21.8345V26.6984ZM21.8345 18.8648V18.8742H31.1719L31.2494 18.0054L31.4256 16.0456L31.518 15.0085H21.8345V18.8649V18.8648Z" fill="white"/>
        </g>
        <defs>
            <clipPath id="clip0_1_4700">
                <rect width="43.6957" height="43.6957" fill="white"/>
            </clipPath>
        </defs>
    </g>
    <g id="react">
        <g clip-path="url(#clip0_20_1854)">
            <path d="M47.8125 25C47.8125 22.0833 44.6875 19.375 39.4792 17.5L38.5417 17.1875V16.7708C39.6875 11.0416 38.8542 6.7708 36.25 5.2083C33.6458 3.6458 29.7917 5.10414 25.625 8.74997L25 9.37497L24.7917 9.16664H24.5833C20.3125 5.2083 16.1458 3.85414 13.5417 5.31247C10.9375 6.7708 10.2083 10.8333 11.25 16.1458C11.3596 16.4838 11.4295 16.8333 11.4583 17.1875L10.3125 17.6041C5.20833 19.375 2.1875 22.0833 2.1875 25C2.1875 27.9166 5.52083 30.8333 10.7292 32.7083L11.4583 32.9166C11.3296 33.2854 11.2593 33.672 11.25 34.0625C10.2083 39.2708 11.1458 43.2291 13.5417 44.6875C15.9375 46.1458 20.3125 44.7916 24.4792 41.1458L25.1042 40.625L25.9375 41.4583C28.8542 43.9583 31.7708 45.3125 34.0625 45.3125C34.8708 45.3309 35.6671 45.1137 36.3542 44.6875C38.9583 43.2291 39.8958 38.9583 38.75 33.5416V33.3333C38.705 33.1619 38.6702 32.988 38.6458 32.8125H38.9583C44.4792 30.8333 47.8125 28.0208 47.8125 25ZM44.7917 25C44.7917 26.25 42.5 28.4375 38.0208 29.8958H37.8125C37.2664 28.2202 36.6051 26.5843 35.8333 25C36.5625 23.3333 37.1875 21.6666 37.7083 20.1041L38.5417 20.3125C42.7083 21.7708 44.7917 23.75 44.7917 25ZM27.9167 39.1666L27.0833 38.5416C28.2761 37.2201 29.3891 35.8287 30.4167 34.375L35.7292 33.5416C35.8333 33.75 35.8333 33.9583 35.9375 34.0625C36.3087 35.9492 36.379 37.8829 36.1458 39.7916C35.9995 40.7045 35.5608 41.5452 34.8958 42.1875C33.8542 42.8125 31.0417 41.9791 27.9167 39.1666ZM26.5625 34.5833L25.1042 36.4583L23.4375 34.5833H26.5625ZM12.2917 20C12.8152 21.7174 13.4771 23.3895 14.2708 25C13.4765 26.646 12.8146 28.3528 12.2917 30.1041L11.6667 29.8958C9.84256 29.3201 8.1454 28.4008 6.66667 27.1875C6.28377 26.9455 5.95605 26.6257 5.7048 26.2488C5.45356 25.872 5.2844 25.4465 5.20833 25C5.20833 23.75 7.29167 21.7708 11.25 20.4166L12.2917 20ZM23.4375 15.4166L25 13.6458L26.5625 15.4166H23.4375ZM34.8958 7.81247C36.0417 8.43747 36.6667 11.5625 35.7292 16.1458C35.734 16.2022 35.7272 16.2591 35.7093 16.3128C35.6914 16.3665 35.6627 16.416 35.625 16.4583L30.4167 15.625C29.3891 14.1712 28.2761 12.7799 27.0833 11.4583L27.7083 10.9375C31.0417 8.0208 33.75 7.18747 34.8958 7.81247ZM17.5 18.8541L16.6667 20.2083L15.9375 21.5625C15.625 20.8333 15.4167 20.1041 15.1042 19.2708L17.5 18.8541ZM15.1042 30.7291C15.4167 30 15.625 29.2708 15.9375 28.4375L16.6667 29.7916L17.5 31.1458L15.1042 30.7291ZM32.5 25C31.9699 26.142 31.3788 27.2548 30.7292 28.3333C30.1042 29.4791 29.375 30.5208 28.75 31.5625H21.25C20.5208 30.4166 19.7917 29.375 19.2708 28.3333C18.6161 27.2577 18.0248 26.1447 17.5 25C18.0054 23.8458 18.5974 22.7315 19.2708 21.6666C19.8693 20.5874 20.5301 19.544 21.25 18.5416C23.7457 18.3334 26.2543 18.3334 28.75 18.5416C29.4792 19.5833 30.1042 20.625 30.7292 21.6666C31.4026 22.7315 31.9946 23.8458 32.5 25ZM33.3333 20.2083L32.5 18.8541L34.8958 19.375C34.6639 20.1208 34.3856 20.8514 34.0625 21.5625L33.3333 20.2083ZM32.5 31.1458L33.3333 29.7916L34.0625 28.3333L35 30.7291L32.5 31.1458ZM22.8125 11.3541H22.9167L19.5833 15.5208L14.375 16.3541C14.2708 16.0416 14.2708 15.8333 14.1667 15.5208C13.3333 11.25 13.9583 8.3333 15 7.81247C15.2766 7.63082 15.61 7.55672 15.9375 7.60414C17.3958 7.60414 19.8958 8.6458 22.7083 11.1458L22.8125 11.3541ZM14.1667 34.5833C14.1857 34.2617 14.256 33.9452 14.375 33.6458L19.6875 34.375C20.689 35.8481 21.8034 37.2412 23.0208 38.5416L22.8125 38.75L22.6042 38.9583C21.184 40.2738 19.5211 41.2999 17.7083 41.9791C17.3107 42.1874 16.875 42.3133 16.4275 42.3491C15.98 42.3849 15.5299 42.3299 15.1042 42.1875C13.9583 41.5625 13.3333 38.75 14.1667 34.5833Z" fill="#7572D5"/>
            <path d="M25 20.4166C24.0894 20.3959 23.1932 20.647 22.4259 21.1379C21.6586 21.6287 21.0549 22.3371 20.692 23.1726C20.3291 24.008 20.2233 24.9327 20.3882 25.8285C20.5532 26.7243 20.9812 27.5507 21.6179 28.2022C22.2545 28.8536 23.0709 29.3006 23.9627 29.4861C24.8545 29.6715 25.7813 29.587 26.6249 29.2434C27.4685 28.8998 28.1905 28.3126 28.6989 27.5568C29.2073 26.801 29.4789 25.9108 29.4792 24.9999C29.4795 23.8022 29.0109 22.6519 28.1738 21.7953C27.3366 20.9387 26.1974 20.4438 25 20.4166Z" fill="#7572D5"/>
        </g>
        <defs>
            <clipPath id="clip0_20_1854">
                <rect width="50" height="50" fill="white"/>
            </clipPath>
        </defs>
    </g>
    <g id="css3">
        <path d="M38.0508 10.8437L12.946 10.8377L13.3515 15.7547L32.6381 15.7577L32.1519 20.8502H19.5035L19.9608 25.6742H31.7358L31.0392 32.2806L25.4969 33.7886L19.8663 32.2701L19.508 28.3134H14.5359L15.0877 35.5411L25.4969 38.7341L35.7309 35.8652L38.0493 10.8452L38.0508 10.8437ZM5.49844 2.56873H45.4984L41.86 42.9999L25.4542 47.5687L9.13993 42.9968L5.49844 2.56873Z" fill="#7572D5"/>
    </g>
    <g id="ts">
        <path d="M5 25V45H45V5H5V25ZM37.235 23.4067C38.2517 23.66 39.025 24.1117 39.7367 24.8483C40.105 25.2417 40.6517 25.9583 40.695 26.1317C40.7083 26.1817 38.9683 27.3483 37.915 28.0033C37.8767 28.0283 37.7233 27.8633 37.5533 27.61C37.0367 26.86 36.4983 26.5367 35.6733 26.48C34.46 26.3967 33.68 27.0317 33.6867 28.0917C33.6756 28.3523 33.7343 28.6112 33.8567 28.8417C34.1233 29.3933 34.62 29.725 36.1733 30.3967C39.0383 31.63 40.2633 32.4417 41.025 33.5967C41.875 34.885 42.0667 36.9433 41.4883 38.4733C40.855 40.1367 39.28 41.2667 37.0633 41.64C36.3783 41.7617 34.7533 41.7433 34.0167 41.61C32.41 41.3233 30.8867 40.53 29.9467 39.4883C29.5783 39.0833 28.86 38.0217 28.905 37.9467C28.9233 37.92 29.0883 37.8183 29.2717 37.7117C29.4517 37.61 30.1233 37.2217 30.7583 36.8533L31.9083 36.1867L32.15 36.5433C32.4867 37.0567 33.2217 37.7617 33.6667 37.9967C34.9433 38.67 36.695 38.575 37.5583 37.8C37.7319 37.6538 37.8694 37.4693 37.9599 37.2612C38.0504 37.053 38.0915 36.8267 38.08 36.6C38.08 36.1367 38.0217 35.9333 37.78 35.5833C37.47 35.14 36.835 34.7667 35.0317 33.9833C32.9683 33.095 32.08 32.5433 31.2667 31.6667C30.759 31.0881 30.3841 30.4055 30.1683 29.6667C30.0167 29.1017 29.9783 27.685 30.0983 27.115C30.5233 25.12 32.0283 23.7317 34.2 23.3183C34.905 23.185 36.5433 23.235 37.235 23.4067ZM27.845 25.0767L27.8583 26.715H22.65V41.5083H18.9667V26.715H13.7633V25.1083C13.7633 24.2183 13.7817 23.475 13.8067 23.4583C13.8267 23.4317 16.995 23.4183 20.835 23.425L27.8267 23.445L27.845 25.0767Z" fill="#7572D5"/>
    </g>
    <g id="communication/call">
        <path d="M81 54.1667C80.0833 54.1667 79.125 53.875 78.2083 53.6667C76.352 53.2576 74.5278 52.7145 72.75 52.0417C70.817 51.3385 68.6923 51.375 66.7846 52.1442C64.8769 52.9134 63.3212 54.361 62.4167 56.2083L61.5 58.0833C57.4417 55.8257 53.7124 53.0218 50.4167 49.75C47.1449 46.4542 44.3409 42.725 42.0833 38.6667L43.8333 37.5C45.6807 36.5955 47.1282 35.0397 47.8975 33.1321C48.6667 31.2244 48.7032 29.0996 48 27.1667C47.3384 25.3851 46.7956 23.5617 46.375 21.7083C46.1667 20.7917 46 19.8333 45.875 18.875C45.369 15.9401 43.8318 13.2823 41.5401 11.3802C39.2484 9.47808 36.3529 8.45671 33.375 8.50001H20.875C19.0793 8.48315 17.301 8.8534 15.6613 9.58555C14.0215 10.3177 12.5588 11.3946 11.3726 12.7429C10.1865 14.0911 9.30472 15.6792 8.78744 17.3988C8.27017 19.1185 8.12949 20.9294 8.37499 22.7083C10.5947 40.1641 18.5668 56.3828 31.0319 68.8027C43.497 81.2225 59.7446 89.1355 77.2083 91.2917H78.7917C81.8642 91.2962 84.8308 90.1689 87.125 88.125C88.4432 86.946 89.4962 85.5007 90.2144 83.8847C90.9327 82.2686 91.2999 80.5185 91.2917 78.75V66.25C91.2406 63.3558 90.1867 60.569 88.3097 58.3653C86.4328 56.1616 83.8492 54.6776 81 54.1667ZM83.0833 79.1667C83.0826 79.7583 82.9558 80.3429 82.7116 80.8818C82.4673 81.4206 82.1111 81.9012 81.6667 82.2917C81.2025 82.6959 80.6582 82.9976 80.0695 83.1771C79.4807 83.3566 78.8607 83.4098 78.25 83.3333C62.6454 81.3325 48.151 74.1937 37.053 63.0429C25.955 51.8921 18.885 37.3639 16.9583 21.75C16.892 21.1397 16.9501 20.5222 17.1292 19.935C17.3082 19.3477 17.6045 18.8029 18 18.3333C18.3905 17.8889 18.8711 17.5327 19.4099 17.2884C19.9487 17.0441 20.5334 16.9174 21.125 16.9167H33.625C34.5939 16.8951 35.5401 17.212 36.3006 17.8128C37.0611 18.4136 37.5884 19.2607 37.7917 20.2083C37.9583 21.3472 38.1667 22.4722 38.4167 23.5833C38.898 25.7798 39.5386 27.9383 40.3333 30.0417L34.5 32.75C34.0012 32.9788 33.5526 33.304 33.1798 33.7067C32.807 34.1094 32.5175 34.5817 32.3278 35.0967C32.1381 35.6116 32.052 36.1589 32.0744 36.7072C32.0968 37.2555 32.2272 37.7939 32.4583 38.2917C38.455 51.1365 48.7802 61.4617 61.625 67.4583C62.6394 67.8751 63.7772 67.8751 64.7917 67.4583C65.3113 67.2725 65.7888 66.9852 66.1965 66.6133C66.6042 66.2413 66.934 65.7921 67.1667 65.2917L69.75 59.4583C71.904 60.2287 74.1024 60.8687 76.3333 61.375C77.4444 61.625 78.5694 61.8333 79.7083 62C80.6559 62.2033 81.5031 62.7306 82.1039 63.4911C82.7047 64.2516 83.0216 65.1977 83 66.1667L83.0833 79.1667Z" fill="white"/>
    </g>
    <g id="instagram">
        <path d="M72.25 22.7502C71.2611 22.7502 70.2944 23.0435 69.4722 23.5929C68.6499 24.1423 68.009 24.9232 67.6306 25.8368C67.2522 26.7504 67.1532 27.7558 67.3461 28.7257C67.539 29.6956 68.0152 30.5865 68.7145 31.2858C69.4137 31.985 70.3047 32.4612 71.2746 32.6541C72.2445 32.8471 73.2498 32.7481 74.1634 32.3696C75.0771 31.9912 75.8579 31.3503 76.4074 30.5281C76.9568 29.7058 77.25 28.7391 77.25 27.7502C77.25 26.4241 76.7232 25.1524 75.7855 24.2147C74.8479 23.277 73.5761 22.7502 72.25 22.7502ZM91.4167 32.8336C91.3356 29.3765 90.6882 25.9561 89.5 22.7086C88.4406 19.9299 86.7916 17.4139 84.6667 15.3336C82.6034 13.1978 80.0815 11.5593 77.2917 10.5419C74.0527 9.31756 70.6285 8.65527 67.1667 8.58356C62.75 8.33356 61.3333 8.33356 50 8.33356C38.6667 8.33356 37.25 8.33356 32.8333 8.58356C29.3715 8.65527 25.9473 9.31756 22.7083 10.5419C19.9237 11.5696 17.4039 13.2067 15.3333 15.3336C13.1976 17.3968 11.5591 19.9187 10.5417 22.7086C9.31735 25.9475 8.65505 29.3717 8.58334 32.8336C8.33334 37.2502 8.33334 38.6669 8.33334 50.0002C8.33334 61.3336 8.33334 62.7502 8.58334 67.1669C8.65505 70.6288 9.31735 74.053 10.5417 77.2919C11.5591 80.0817 13.1976 82.6036 15.3333 84.6669C17.4039 86.7937 19.9237 88.4308 22.7083 89.4585C25.9473 90.6829 29.3715 91.3452 32.8333 91.4169C37.25 91.6669 38.6667 91.6669 50 91.6669C61.3333 91.6669 62.75 91.6669 67.1667 91.4169C70.6285 91.3452 74.0527 90.6829 77.2917 89.4585C80.0815 88.4411 82.6034 86.8026 84.6667 84.6669C86.801 82.5943 88.4514 80.076 89.5 77.2919C90.6882 74.0444 91.3356 70.624 91.4167 67.1669C91.4167 62.7502 91.6667 61.3336 91.6667 50.0002C91.6667 38.6669 91.6667 37.2502 91.4167 32.8336ZM83.9167 66.6669C83.8863 69.3118 83.4073 71.9323 82.5 74.4169C81.8347 76.2302 80.7662 77.8687 79.375 79.2086C78.0235 80.5857 76.3885 81.652 74.5833 82.3336C72.0988 83.2409 69.4782 83.7199 66.8333 83.7502C62.6667 83.9586 61.125 84.0002 50.1667 84.0002C39.2083 84.0002 37.6667 84.0002 33.5 83.7502C30.7537 83.8016 28.0192 83.3788 25.4167 82.5002C23.6908 81.7839 22.1307 80.7202 20.8333 79.3752C19.4504 78.0367 18.3952 76.3969 17.75 74.5835C16.7327 72.0634 16.1685 69.3833 16.0833 66.6669C16.0833 62.5002 15.8333 60.9586 15.8333 50.0002C15.8333 39.0419 15.8333 37.5002 16.0833 33.3336C16.102 30.6296 16.5956 27.95 17.5417 25.4169C18.2752 23.6582 19.4011 22.0905 20.8333 20.8336C22.0992 19.4009 23.6637 18.2631 25.4167 17.5002C27.9565 16.5837 30.6333 16.1047 33.3333 16.0836C37.5 16.0836 39.0417 15.8336 50 15.8336C60.9583 15.8336 62.5 15.8336 66.6667 16.0836C69.3116 16.1139 71.9321 16.5929 74.4167 17.5002C76.3101 18.2029 78.0096 19.3454 79.375 20.8336C80.7404 22.1135 81.8073 23.6783 82.5 25.4169C83.4261 27.9541 83.9054 30.6326 83.9167 33.3336C84.125 37.5002 84.1667 39.0419 84.1667 50.0002C84.1667 60.9586 84.125 62.5002 83.9167 66.6669ZM50 28.6252C45.7742 28.6335 41.6457 29.8941 38.1361 32.2478C34.6265 34.6015 31.8933 37.9427 30.2818 41.8492C28.6704 45.7557 28.253 50.0522 29.0825 54.1958C29.9119 58.3394 31.951 62.1441 34.942 65.1293C37.933 68.1145 41.7417 70.1461 45.8869 70.9675C50.0321 71.7889 54.3278 71.3632 58.2311 69.7441C62.1345 68.1251 65.4703 65.3854 67.8172 61.8712C70.1641 58.357 71.4167 54.226 71.4167 50.0002C71.4222 47.1882 70.8717 44.4027 69.7968 41.8042C68.722 39.2057 67.144 36.8453 65.1536 34.8588C63.1633 32.8723 60.7998 31.2989 58.1992 30.2291C55.5985 29.1593 52.8121 28.6142 50 28.6252ZM50 63.8752C47.2558 63.8752 44.5732 63.0615 42.2915 61.5369C40.0097 60.0123 38.2313 57.8453 37.1812 55.31C36.131 52.7746 35.8562 49.9848 36.3916 47.2933C36.927 44.6019 38.2484 42.1296 40.1889 40.1891C42.1294 38.2487 44.6016 36.9272 47.2931 36.3918C49.9846 35.8565 52.7744 36.1312 55.3097 37.1814C57.8451 38.2316 60.012 40.01 61.5367 42.2917C63.0613 44.5734 63.875 47.256 63.875 50.0002C63.875 51.8223 63.5161 53.6266 62.8188 55.31C62.1216 56.9933 61.0995 58.5229 59.8111 59.8113C58.5227 61.0997 56.9931 62.1218 55.3097 62.819C53.6264 63.5163 51.8221 63.8752 50 63.8752Z" fill="white"/>
    </g>
    <g id="communication/message">
        <path d="M19.9583 43.75H11.625C10.5199 43.75 9.46012 44.189 8.67872 44.9704C7.89731 45.7518 7.45833 46.8116 7.45833 47.9167C7.45833 49.0217 7.89731 50.0815 8.67872 50.8629C9.46012 51.6443 10.5199 52.0833 11.625 52.0833H19.9583C21.0634 52.0833 22.1232 51.6443 22.9046 50.8629C23.686 50.0815 24.125 49.0217 24.125 47.9167C24.125 46.8116 23.686 45.7518 22.9046 44.9704C22.1232 44.189 21.0634 43.75 19.9583 43.75ZM89.875 31.9167V31.6667C88.6812 30.2075 87.1728 29.0372 85.4627 28.2435C83.7526 27.4497 81.8851 27.0531 80 27.0833H46.9583C43.8967 27.0558 40.9314 28.153 38.625 30.1667C36.4708 32.0647 35.0546 34.6613 34.625 37.5L30.9583 58.3333C30.643 60.1325 30.7258 61.9789 31.201 63.7425C31.6761 65.5062 32.5319 67.1444 33.7083 68.5417C34.8786 69.9343 36.3387 71.0547 37.9867 71.8248C39.6347 72.5948 41.431 72.9959 43.25 73H76.3333C79.3052 73.0449 82.1958 72.0294 84.4866 70.1357C86.7774 68.242 88.3185 65.5939 88.8333 62.6667L92.5 41.8333C92.7888 40.0888 92.7041 38.3028 92.2516 36.5933C91.7991 34.8839 90.9891 33.2899 89.875 31.9167ZM78.4583 35.4167L64.2917 46.9167C63.4541 47.5917 62.3878 47.9167 61.3161 47.8235C60.2443 47.7303 59.2502 47.2262 58.5417 46.4167L48.8333 35.4167H78.4583ZM80.4583 61.125C80.2897 62.1033 79.7772 62.9892 79.0134 63.6233C78.2495 64.2573 77.2843 64.5978 76.2917 64.5833H43.25C42.6449 64.5782 42.0482 64.4414 41.5013 64.1824C40.9545 63.9233 40.4706 63.5483 40.0833 63.0833C39.6951 62.6208 39.412 62.0794 39.2538 61.4967C39.0955 60.9139 39.0658 60.3037 39.1667 59.7083L42.5 40.8333L52.2917 51.9167C54.4229 54.339 57.4083 55.8435 60.6233 56.1153C63.8384 56.3871 67.034 55.4052 69.5417 53.375L83.875 41.6667L80.4583 61.125ZM24.125 27.0833H11.625C10.5199 27.0833 9.46012 27.5223 8.67872 28.3037C7.89731 29.0851 7.45833 30.1449 7.45833 31.25C7.45833 32.3551 7.89731 33.4149 8.67872 34.1963C9.46012 34.9777 10.5199 35.4167 11.625 35.4167H24.125C25.2301 35.4167 26.2899 34.9777 27.0713 34.1963C27.8527 33.4149 28.2917 32.3551 28.2917 31.25C28.2917 30.1449 27.8527 29.0851 27.0713 28.3037C26.2899 27.5223 25.2301 27.0833 24.125 27.0833Z" fill="white"/>
    </g>
    <g id="github">
        <path d="M50 9.36124C40.1061 9.36165 30.5352 12.8825 22.9998 19.2939C15.4644 25.7053 10.4562 34.5888 8.87136 44.3549C7.28649 54.121 9.22838 64.1324 14.3496 72.5977C19.4707 81.063 27.437 87.4299 36.823 90.5591C38.9063 90.9238 39.6876 89.6738 39.6876 88.5799C39.6876 87.5904 39.6354 84.3091 39.6354 80.8196C29.1666 82.7466 26.4583 78.2676 25.625 75.9239C24.7003 73.6444 23.2345 71.6243 21.3541 70.0383C19.8958 69.2571 17.8125 67.33 21.302 67.278C22.6345 67.4226 23.9124 67.8862 25.0276 68.6296C26.1428 69.3731 27.0623 70.3744 27.7083 71.5487C28.2782 72.5724 29.0445 73.4737 29.9633 74.2008C30.8821 74.9278 31.9353 75.4665 33.0626 75.7858C34.1899 76.1051 35.3692 76.1989 36.5328 76.0617C37.6964 75.9245 38.8215 75.559 39.8436 74.9862C40.024 72.868 40.9681 70.8874 42.5 69.4134C33.2291 68.3718 23.5416 64.7779 23.5416 48.8405C23.4831 44.6995 25.0112 40.6929 27.8125 37.6426C26.5386 34.0435 26.6877 30.0938 28.2291 26.6009C28.2291 26.6009 31.7186 25.5072 39.6875 30.8718C46.5053 28.9967 53.7029 28.9967 60.5208 30.8718C68.4895 25.4551 71.9791 26.6009 71.9791 26.6009C73.5208 30.0937 73.6698 34.0436 72.3958 37.6426C75.2056 40.6877 76.735 44.6977 76.6666 48.8405C76.6666 64.83 66.927 68.3718 57.6562 69.4134C58.6506 70.4213 59.4164 71.6313 59.9017 72.9614C60.387 74.2915 60.5804 75.7104 60.4687 77.1218C60.4687 82.6948 60.4166 87.1738 60.4166 88.5801C60.4166 89.6739 61.1979 90.9759 63.2812 90.5593C72.6506 87.4046 80.594 81.0228 85.6934 72.5531C90.7927 64.0834 92.7162 54.0772 91.1203 44.3206C89.5245 34.5639 84.5132 25.6919 76.9811 19.2884C69.449 12.8848 59.8863 9.36638 50 9.36124Z" fill="white"/>
    </g>
</svg>