<svg xmlns="http://www.w3.org/2000/svg">
    <!--vector-->
    <g id="vector">
        <path d="M33.3628 33.5861H0.74823V0.708374H22.8799V1.49108H1.52521V32.8034H32.5864V17.1472H33.3628V33.5861Z" fill="#343D68"/>
    </g>
    <!--cube-->
    <g id="cube">
        <path d="M23.3395 .514526C33.481 11.882 37.3868 25.263 37.3868 25.263C37.3868 25.263 24.85 27.7217 14.7085 20.9849C4.56705 14.2481 0.661255 0.867117 0.661255 0.867117C0.661255 0.867117 13.198 -1.59149 23.3395 5.14526Z" fill="#6C63FF"/>
    </g>
    <g>
        <g id="html5" clip-path="url(#clip0_1_4700)">
            <path id="Vector" d="M37.2872 8.56567L34.4741 40.0798L21.829 43.5854L9.21871 40.0847L6.40851 8.56567H37.2872Z" fill="#E44D26"/>
            <path id="Vector_2" d="M21.8478 40.9058L32.0657 38.0731L34.4696 11.1428H21.8478V40.9058Z" fill="#F16529"/>
            <path id="Vector_3" d="M16.3792 18.8742H21.8478V15.0085H12.1545L12.247 16.0456L13.1972 26.6984H21.8478V22.8327H16.7325L16.3792 18.8742ZM17.2505 28.6313H13.3699L13.9114 34.701L21.83 36.8991L21.8478 36.8943V32.8723L21.8309 32.8768L17.5257 31.7143L17.2505 28.6313Z" fill="#EBEBEB"/>
            <path id="Vector_4" d="M9.28137 0.00012207H11.2459V1.94101H13.043V0.00012207H15.0076V5.87761H13.0431V3.90949H11.246V5.87761H9.28149V0.00012207H9.28137ZM17.5908 1.94924H15.8616V0.00012207H21.2859V1.94924H19.5557V5.87761H17.5912V1.94924H17.5911H17.5908ZM22.1468 0.00012207H24.1951L25.4552 2.06532L26.714 0.00012207H28.7632V5.87761H26.8067V2.9644L25.4552 5.05417H25.4213L24.0689 2.9644V5.87761H22.1468V0.00012207ZM29.7409 0.00012207H31.706V3.93491H34.4686V5.87761H29.7407V0.00012207H29.7409Z" fill="black"/>
            <path id="Vector_5" d="M21.8345 26.6984H26.5946L26.1458 31.7119L21.8344 32.8756V36.8973L29.7592 34.701L29.8173 34.0479L30.7259 23.8708L30.8202 22.8327H21.8345V26.6984ZM21.8345 18.8648V18.8742H31.1719L31.2494 18.0054L31.4256 16.0456L31.518 15.0085H21.8345V18.8649V18.8648Z" fill="white"/>
        </g>
        <defs>
            <clipPath id="clip0_1_4700">
                <rect width="43.6957" height="43.6957" fill="white"/>
            </clipPath>
        </defs>
    </g>
    <g id="react">
        <g clip-path="url(#clip0_20_1854)">
            <path d="M47.8125 25C47.8125 22.0833 44.6875 19.375 39.4792 17.5L38.5417 17.1875V16.7708C39.6875 11.0416 38.8542 6.7708 36.25 5.2083C33.6458 3.6458 29.7917 5.10414 25.625 8.74997L25 9.37497L24.7917 9.16664H24.5833C20.3125 5.2083 16.1458 3.85414 13.5417 5.31247C10.9375 6.7708 10.2083 10.8333 11.25 16.1458C11.3596 16.4838 11.4295 16.8333 11.4583 17.1875L10.3125 17.6041C5.20833 19.375 2.1875 22.0833 2.1875 25C2.1875 27.9166 5.52083 30.8333 10.7292 32.7083L11.4583 32.9166C11.3296 33.2854 11.2593 33.672 11.25 34.0625C10.2083 39.2708 11.1458 43.2291 13.5417 44.6875C15.9375 46.1458 20.3125 44.7916 24.4792 41.1458L25.1042 40.625L25.9375 41.4583C28.8542 43.9583 31.7708 45.3125 34.0625 45.3125C34.8708 45.3309 35.6671 45.1137 36.3542 44.6875C38.9583 43.2291 39.8958 38.9583 38.75 33.5416V33.3333C38.705 33.1619 38.6702 32.988 38.6458 32.8125H38.9583C44.4792 30.8333 47.8125 28.0208 47.8125 25ZM44.7917 25C44.7917 26.25 42.5 28.4375 38.0208 29.8958H37.8125C37.2664 28.2202 36.6051 26.5843 35.8333 25C36.5625 23.3333 37.1875 21.6666 37.7083 20.1041L38.5417 20.3125C42.7083 21.7708 44.7917 23.75 44.7917 25ZM27.9167 39.1666L27.0833 38.5416C28.2761 37.2201 29.3891 35.8287 30.4167 34.375L35.7292 33.5416C35.8333 33.75 35.8333 33.9583 35.9375 34.0625C36.3087 35.9492 36.379 37.8829 36.1458 39.7916C35.9995 40.7045 35.5608 41.5452 34.8958 42.1875C33.8542 42.8125 31.0417 41.9791 27.9167 39.1666ZM26.5625 34.5833L25.1042 36.4583L23.4375 34.5833H26.5625ZM12.2917 20C12.8152 21.7174 13.4771 23.3895 14.2708 25C13.4765 26.646 12.8146 28.3528 12.2917 30.1041L11.6667 29.8958C9.84256 29.3201 8.1454 28.4008 6.66667 27.1875C6.28377 26.9455 5.95605 26.6257 5.7048 26.2488C5.45356 25.872 5.2844 25.4465 5.20833 25C5.20833 23.75 7.29167 21.7708 11.25 20.4166L12.2917 20ZM23.4375 15.4166L25 13.6458L26.5625 15.4166H23.4375ZM34.8958 7.81247C36.0417 8.43747 36.6667 11.5625 35.7292 16.1458C35.734 16.2022 35.7272 16.2591 35.7093 16.3128C35.6914 16.3665 35.6627 16.416 35.625 16.4583L30.4167 15.625C29.3891 14.1712 28.2761 12.7799 27.0833 11.4583L27.7083 10.9375C31.0417 8.0208 33.75 7.18747 34.8958 7.81247ZM17.5 18.8541L16.6667 20.2083L15.9375 21.5625C15.625 20.8333 15.4167 20.1041 15.1042 19.2708L17.5 18.8541ZM15.1042 30.7291C15.4167 30 15.625 29.2708 15.9375 28.4375L16.6667 29.7916L17.5 31.1458L15.1042 30.7291ZM32.5 25C31.9699 26.142 31.3788 27.2548 30.7292 28.3333C30.1042 29.4791 29.375 30.5208 28.75 31.5625H21.25C20.5208 30.4166 19.7917 29.375 19.2708 28.3333C18.6161 27.2577 18.0248 26.1447 17.5 25C18.0054 23.8458 18.5974 22.7315 19.2708 21.6666C19.8693 20.5874 20.5301 19.544 21.25 18.5416C23.7457 18.3334 26.2543 18.3334 28.75 18.5416C29.4792 19.5833 30.1042 20.625 30.7292 21.6666C31.4026 22.7315 31.9946 23.8458 32.5 25ZM33.3333 20.2083L32.5 18.8541L34.8958 19.375C34.6639 20.1208 34.3856 20.8514 34.0625 21.5625L33.3333 20.2083ZM32.5 31.1458L33.3333 29.7916L34.0625 28.3333L35 30.7291L32.5 31.1458ZM22.8125 11.3541H22.9167L19.5833 15.5208L14.375 16.3541C14.2708 16.0416 14.2708 15.8333 14.1667 15.5208C13.3333 11.25 13.9583 8.3333 15 7.81247C15.2766 7.63082 15.61 7.55672 15.9375 7.60414C17.3958 7.60414 19.8958 8.6458 22.7083 11.1458L22.8125 11.3541ZM14.1667 34.5833C14.1857 34.2617 14.256 33.9452 14.375 33.6458L19.6875 34.375C20.689 35.8481 21.8034 37.2412 23.0208 38.5416L22.8125 38.75L22.6042 38.9583C21.184 40.2738 19.5211 41.2999 17.7083 41.9791C17.3107 42.1874 16.875 42.3133 16.4275 42.3491C15.98 42.3849 15.5299 42.3299 15.1042 42.1875C13.9583 41.5625 13.3333 38.75 14.1667 34.5833Z" fill="#7572D5"/>
            <path d="M25 20.4166C24.0894 20.3959 23.1932 20.647 22.4259 21.1379C21.6586 21.6287 21.0549 22.3371 20.692 23.1726C20.3291 24.008 20.2233 24.9327 20.3882 25.8285C20.5532 26.7243 20.9812 27.5507 21.6179 28.2022C22.2545 28.8536 23.0709 29.3006 23.9627 29.4861C24.8545 29.6715 25.7813 29.587 26.6249 29.2434C27.4685 28.8998 28.1905 28.3126 28.6989 27.5568C29.2073 26.801 29.4789 25.9108 29.4792 24.9999C29.4795 23.8022 29.0109 22.6519 28.1738 21.7953C27.3366 20.9387 26.1974 20.4438 25 20.4166Z" fill="#7572D5"/>
        </g>
        <defs>
            <clipPath id="clip0_20_1854">
                <rect width="50" height="50" fill="white"/>
            </clipPath>
        </defs>
    </g>
    <g id="css3">
        <path d="M38.0508 10.8437L12.946 10.8377L13.3515 15.7547L32.6381 15.7577L32.1519 20.8502H19.5035L19.9608 25.6742H31.7358L31.0392 32.2806L25.4969 33.7886L19.8663 32.2701L19.508 28.3134H14.5359L15.0877 35.5411L25.4969 38.7341L35.7309 35.8652L38.0493 10.8452L38.0508 10.8437ZM5.49844 2.56873H45.4984L41.86 42.9999L25.4542 47.5687L9.13993 42.9968L5.49844 2.56873Z" fill="#7572D5"/>
    </g>
    <g id="ts">
        <path d="M5 25V45H45V5H5V25ZM37.235 23.4067C38.2517 23.66 39.025 24.1117 39.7367 24.8483C40.105 25.2417 40.6517 25.9583 40.695 26.1317C40.7083 26.1817 38.9683 27.3483 37.915 28.0033C37.8767 28.0283 37.7233 27.8633 37.5533 27.61C37.0367 26.86 36.4983 26.5367 35.6733 26.48C34.46 26.3967 33.68 27.0317 33.6867 28.0917C33.6756 28.3523 33.7343 28.6112 33.8567 28.8417C34.1233 29.3933 34.62 29.725 36.1733 30.3967C39.0383 31.63 40.2633 32.4417 41.025 33.5967C41.875 34.885 42.0667 36.9433 41.4883 38.4733C40.855 40.1367 39.28 41.2667 37.0633 41.64C36.3783 41.7617 34.7533 41.7433 34.0167 41.61C32.41 41.3233 30.8867 40.53 29.9467 39.4883C29.5783 39.0833 28.86 38.0217 28.905 37.9467C28.9233 37.92 29.0883 37.8183 29.2717 37.7117C29.4517 37.61 30.1233 37.2217 30.7583 36.8533L31.9083 36.1867L32.15 36.5433C32.4867 37.0567 33.2217 37.7617 33.6667 37.9967C34.9433 38.67 36.695 38.575 37.5583 37.8C37.7319 37.6538 37.8694 37.4693 37.9599 37.2612C38.0504 37.053 38.0915 36.8267 38.08 36.6C38.08 36.1367 38.0217 35.9333 37.78 35.5833C37.47 35.14 36.835 34.7667 35.0317 33.9833C32.9683 33.095 32.08 32.5433 31.2667 31.6667C30.759 31.0881 30.3841 30.4055 30.1683 29.6667C30.0167 29.1017 29.9783 27.685 30.0983 27.115C30.5233 25.12 32.0283 23.7317 34.2 23.3183C34.905 23.185 36.5433 23.235 37.235 23.4067ZM27.845 25.0767L27.8583 26.715H22.65V41.5083H18.9667V26.715H13.7633V25.1083C13.7633 24.2183 13.7817 23.475 13.8067 23.4583C13.8267 23.4317 16.995 23.4183 20.835 23.425L27.8267 23.445L27.845 25.0767Z" fill="#7572D5"/>
    </g>

</svg>